<svg width="1133" height="275" viewBox="0 0 1133 275" fill="none" xmlns="http://www.w3.org/2000/svg">
<rect x="0.0166016" y="156.631" width="1131.85" height="117.439" fill="#0B3D91"/>
<path d="M97.4918 204.904C97.2014 201.71 96.4512 199.266 95.2411 197.572C94.0795 195.878 92.2645 195.031 89.7961 195.031C87.3761 195.031 85.4885 195.708 84.1332 197.064C82.8264 198.37 81.9068 200.427 81.3744 203.235C80.842 205.993 80.5758 209.72 80.5758 214.415C80.5758 219.062 80.842 222.764 81.3744 225.523C81.9068 228.282 82.8264 230.339 84.1332 231.694C85.4885 233.001 87.3761 233.654 89.7961 233.654C92.6033 233.654 94.5877 232.662 95.7493 230.678C96.911 228.693 97.5402 225.789 97.637 221.966L105.042 222.256C104.8 225.596 104.219 228.354 103.3 230.532C102.38 232.71 100.831 234.429 98.6534 235.687C96.5238 236.897 93.5713 237.502 89.7961 237.502C85.1013 237.502 81.3986 236.631 78.6882 234.888C76.0262 233.146 74.1386 230.605 73.0253 227.265C71.9605 223.926 71.4281 219.642 71.4281 214.415C71.4281 209.188 71.9605 204.904 73.0253 201.565C74.1386 198.177 76.0262 195.611 78.6882 193.869C81.3986 192.127 85.1013 191.255 89.7961 191.255C94.9265 191.255 98.5808 192.32 100.759 194.45C102.985 196.531 104.34 199.629 104.824 203.743L97.4918 204.904ZM162.864 192.127V236.631H153.644V216.593H138.47V236.631H129.323V192.127H138.47V212.164H153.644V192.127H162.864ZM212.469 223.853H195.698L191.778 236.631H186.478L200.49 192.127H211.307L225.247 236.631H216.462L212.469 223.853ZM211.162 219.497L204.047 196.555L197.005 219.497H211.162ZM281.642 236.631H271.768L265.452 220.949C264.968 219.691 264.387 218.892 263.709 218.553C263.08 218.166 262.015 217.972 260.515 217.972H257.901V236.631H248.753V192.127H264.871C270.34 192.127 274.188 193.458 276.414 196.12C278.641 198.733 279.754 201.928 279.754 205.703C279.754 208.268 279.125 210.591 277.866 212.673C276.656 214.705 274.551 216.182 271.55 217.101C273.051 217.73 274.164 218.795 274.89 220.296L281.642 236.631ZM263.637 214.633C265.96 214.633 267.702 213.762 268.864 212.019C270.025 210.228 270.606 208.123 270.606 205.703C270.606 202.847 270.025 200.427 268.864 198.443C267.702 196.459 265.96 195.466 263.637 195.466H257.901V214.633H263.637ZM333.304 192.127V196.628H321.688V236.631H312.54V196.628H300.851V192.127H333.304ZM382.638 232.13V236.631H355.848V192.127H381.403V196.628H364.996V211.729H379.734V216.23H364.996V232.13H382.638ZM440.263 236.631H430.389L424.073 220.949C423.589 219.691 423.008 218.892 422.33 218.553C421.701 218.166 420.636 217.972 419.136 217.972H416.522V236.631H407.375V192.127H423.492C428.961 192.127 432.809 193.458 435.035 196.12C437.262 198.733 438.375 201.928 438.375 205.703C438.375 208.268 437.746 210.591 436.487 212.673C435.277 214.705 433.172 216.182 430.171 217.101C431.672 217.73 432.785 218.795 433.511 220.296L440.263 236.631ZM422.258 214.633C424.581 214.633 426.323 213.762 427.485 212.019C428.647 210.228 429.227 208.123 429.227 205.703C429.227 202.847 428.647 200.427 427.485 198.443C426.323 196.459 424.581 195.466 422.258 195.466H416.522V214.633H422.258ZM478.784 191.255C483.527 191.255 487.182 192.369 489.747 194.595C492.312 196.773 493.909 200.161 494.538 204.759L487.133 205.776C486.891 202.339 486.044 199.677 484.592 197.79C483.14 195.902 481.18 194.958 478.711 194.958C476.146 194.958 474.138 195.611 472.686 196.918C471.282 198.225 470.58 200.04 470.58 202.363C470.58 203.815 470.846 205.001 471.379 205.921C471.911 206.792 472.782 207.542 473.992 208.171C475.202 208.752 476.945 209.333 479.22 209.914L483.068 210.93C487.327 211.995 490.352 213.544 492.143 215.577C493.933 217.609 494.829 220.514 494.829 224.289C494.829 228.548 493.425 231.815 490.618 234.09C487.859 236.365 483.866 237.502 478.639 237.502C473.605 237.502 469.757 236.413 467.095 234.235C464.433 232.009 462.836 228.596 462.304 223.998L469.564 222.909C469.903 226.443 470.846 229.153 472.395 231.041C473.944 232.88 476.025 233.799 478.639 233.799C481.446 233.799 483.6 233.17 485.1 231.912C486.601 230.605 487.351 228.742 487.351 226.322C487.351 224.87 487.085 223.708 486.552 222.837C486.02 221.966 485.125 221.24 483.866 220.659C482.608 220.03 480.744 219.425 478.276 218.844L474.864 217.972C470.653 217.004 467.652 215.504 465.861 213.471C464.119 211.39 463.248 208.413 463.248 204.541C463.248 200.137 464.554 196.822 467.168 194.595C469.782 192.369 473.654 191.255 478.784 191.255ZM546.784 192.127V196.628H535.168V236.631H526.02V196.628H514.331V192.127H546.784ZM585.227 237.502C578.935 237.502 574.289 235.639 571.288 231.912C568.336 228.137 566.859 222.304 566.859 214.415C566.859 206.429 568.336 200.573 571.288 196.846C574.289 193.119 578.935 191.255 585.227 191.255C591.519 191.255 596.166 193.143 599.167 196.918C602.168 200.645 603.668 206.477 603.668 214.415C603.668 222.304 602.168 228.137 599.167 231.912C596.214 235.639 591.568 237.502 585.227 237.502ZM585.227 233.799C588.373 233.799 590.697 232.202 592.197 229.008C593.746 225.813 594.52 220.949 594.52 214.415C594.52 207.784 593.746 202.896 592.197 199.75C590.697 196.555 588.373 194.958 585.227 194.958C582.081 194.958 579.758 196.531 578.258 199.677C576.757 202.823 576.007 207.736 576.007 214.415C576.007 221.046 576.757 225.934 578.258 229.08C579.758 232.226 582.081 233.799 585.227 233.799ZM665.146 192.127V236.631H655.417L635.162 201.492V236.631H629.717V192.127H639.373L659.701 227.265V192.127H665.146ZM720.37 232.13V236.631H693.58V192.127H719.135V196.628H702.728V211.729H717.466V216.23H702.728V232.13H720.37ZM812.521 192.127V236.631H803.3V216.593H788.127V236.631H778.979V192.127H788.127V212.164H803.3V192.127H812.521ZM856.898 237.502C850.606 237.502 845.96 235.639 842.959 231.912C840.007 228.137 838.53 222.304 838.53 214.415C838.53 206.429 840.007 200.573 842.959 196.846C845.96 193.119 850.606 191.255 856.898 191.255C863.191 191.255 867.837 193.143 870.838 196.918C873.839 200.645 875.339 206.477 875.339 214.415C875.339 222.304 873.839 228.137 870.838 231.912C867.885 235.639 863.239 237.502 856.898 237.502ZM856.898 233.799C860.044 233.799 862.368 232.202 863.868 229.008C865.417 225.813 866.191 220.949 866.191 214.415C866.191 207.784 865.417 202.896 863.868 199.75C862.368 196.555 860.044 194.958 856.898 194.958C853.752 194.958 851.429 196.531 849.929 199.677C848.428 202.823 847.678 207.736 847.678 214.415C847.678 221.046 848.428 225.934 849.929 229.08C851.429 232.226 853.752 233.799 856.898 233.799ZM936.236 198.516L925.564 236.486V236.631H917.578L906.906 197.862L906.034 236.631H900.517L901.751 192.127H913.512L922.95 226.757L932.534 192.127H944.876L946.182 236.631H937.035L936.236 198.516ZM1000.48 232.13V236.631H973.688V192.127H999.243V196.628H982.836V211.729H997.573V216.23H982.836V232.13H1000.48ZM1038.65 191.255C1043.39 191.255 1047.04 192.369 1049.61 194.595C1052.17 196.773 1053.77 200.161 1054.4 204.759L1046.99 205.776C1046.75 202.339 1045.91 199.677 1044.45 197.79C1043 195.902 1041.04 194.958 1038.57 194.958C1036.01 194.958 1034 195.611 1032.55 196.918C1031.14 198.225 1030.44 200.04 1030.44 202.363C1030.44 203.815 1030.71 205.001 1031.24 205.921C1031.77 206.792 1032.64 207.542 1033.85 208.171C1035.06 208.752 1036.81 209.333 1039.08 209.914L1042.93 210.93C1047.19 211.995 1050.21 213.544 1052 215.577C1053.79 217.609 1054.69 220.514 1054.69 224.289C1054.69 228.548 1053.29 231.815 1050.48 234.09C1047.72 236.365 1043.73 237.502 1038.5 237.502C1033.47 237.502 1029.62 236.413 1026.96 234.235C1024.29 232.009 1022.7 228.596 1022.17 223.998L1029.43 222.909C1029.76 226.443 1030.71 229.153 1032.26 231.041C1033.81 232.88 1035.89 233.799 1038.5 233.799C1041.31 233.799 1043.46 233.17 1044.96 231.912C1046.46 230.605 1047.21 228.742 1047.21 226.322C1047.21 224.87 1046.95 223.708 1046.41 222.837C1045.88 221.966 1044.99 221.24 1043.73 220.659C1042.47 220.03 1040.61 219.425 1038.14 218.844L1034.73 217.972C1030.51 217.004 1027.51 215.504 1025.72 213.471C1023.98 211.39 1023.11 208.413 1023.11 204.541C1023.11 200.137 1024.42 196.822 1027.03 194.595C1029.64 192.369 1033.52 191.255 1038.65 191.255Z" fill="#EDE5DA"/>
<path d="M71.139 47.1814C71.139 52.13 69.9306 56.5033 67.5138 60.3011C65.2121 63.9838 62.1048 66.8034 58.192 68.7598C54.3942 70.7162 50.3662 71.6945 46.1081 71.6945C41.6198 71.6945 37.3616 70.5436 33.3336 68.2419L33.6789 66.6883L36.6136 66.8609L39.5482 66.6883C44.0365 65.9978 47.5466 63.9838 50.0785 60.6463C52.6103 57.1938 53.8763 52.6479 53.8763 47.0088C53.8763 40.6791 52.4377 35.3852 49.5606 31.1271C46.7986 26.7539 42.9432 24.5672 37.9946 24.5672C35.3476 24.5672 33.3912 25.3153 32.1253 26.8114C30.9744 28.3075 30.399 29.9762 30.399 31.8176V79.9806C30.399 84.584 30.7442 88.2091 31.4347 90.8561C32.2403 93.503 33.6214 96.15 35.5778 98.7969L36.9588 100.868L35.5778 102.595H5.54067L4.33228 99.4874C7.32449 98.6818 9.39601 97.9338 10.5469 97.2433C11.8128 96.5528 12.6759 95.5746 13.1363 94.3086C13.5966 93.0427 13.8268 91.0287 13.8268 88.2667V42.3478C13.8268 38.3199 13.4815 35.2701 12.791 33.1986C12.2156 31.012 10.777 29.2282 8.47533 27.8472L6.40381 26.6388L7.09432 24.3946C10.4318 23.3589 14.7475 22.4382 20.0414 21.6326C25.4503 20.827 30.5716 20.4242 35.4052 20.4242C47.1438 20.4242 56.0053 22.8985 61.9898 27.8472C68.0893 32.6807 71.139 39.1255 71.139 47.1814ZM86.6539 44.592C86.6539 39.9886 86.3086 36.3634 85.6181 33.7165C84.9276 31.0695 83.6041 28.4226 81.6477 25.7756L80.2667 23.8767L81.6477 21.9778H119.798C126.128 21.9778 130.386 21.2298 132.573 19.7337L134.644 18.18L136.37 19.7337V41.3121L132.918 42.5205C130.846 36.3059 128.775 32.0478 126.703 29.7461C124.747 27.4444 121.927 26.2935 118.245 26.2935H110.476C107.484 26.2935 105.528 26.8689 104.607 28.0198C103.686 29.0556 103.226 31.3572 103.226 34.9249V59.4379H115.655C119.108 59.4379 121.64 59.0927 123.251 58.4022C124.977 57.7117 126.243 56.3306 127.049 54.2591L127.912 51.8423L130.156 53.2234V72.5576L126.358 73.9386L125.668 70.1408C125.207 67.724 123.941 66.0553 121.87 65.1346C119.798 64.214 116.461 63.7536 111.857 63.7536H103.226V89.8203C103.226 93.2729 103.744 95.5746 104.78 96.7254C105.815 97.7612 108.117 98.279 111.685 98.279H120.144C123.596 98.279 126.301 97.0707 128.257 94.6539C130.329 92.2371 132.285 88.0365 134.126 82.0521L137.752 83.2605V103.976L135.853 105.529C134.241 104.379 132.4 103.573 130.329 103.113C128.257 102.767 125.38 102.595 121.697 102.595H78.3678L77.1594 99.4874C80.0365 98.6818 82.108 97.9338 83.3739 97.2433C84.6399 96.4377 85.503 95.4019 85.9634 94.136C86.4237 92.8701 86.6539 90.9136 86.6539 88.2667V44.592ZM185.757 104.148C173.443 104.148 164.006 100.235 157.446 92.4097C151.001 84.584 147.779 74.5716 147.779 62.3726C147.779 50.1736 151.059 40.1612 157.618 32.3355C164.178 24.3946 173.673 20.4242 186.102 20.4242C194.043 20.4242 200.488 21.9778 205.436 25.0851C210.5 28.0773 213.032 32.0478 213.032 36.9964C213.032 41.83 211.018 45.6278 206.99 48.3898C202.962 51.1518 197.898 52.5328 191.799 52.5328C195.251 48.8501 196.977 43.8439 196.977 37.5143C196.977 33.8316 195.827 30.7818 193.525 28.365C191.338 25.8332 188.461 24.5672 184.894 24.5672C178.334 24.5672 173.5 28.3075 170.393 35.788C167.401 43.2685 165.905 52.13 165.905 62.3726C165.905 68.9324 166.825 74.9168 168.667 80.3258C170.623 85.7348 173.385 90.0505 176.953 93.2729C180.635 96.3801 184.836 97.9338 189.554 97.9338C194.963 97.9338 199.452 96.8405 203.019 94.6539C206.702 92.3522 210.04 89.1873 213.032 85.1594L215.103 86.713C211.996 91.8918 207.968 96.0924 203.019 99.3148C198.186 102.537 192.432 104.148 185.757 104.148ZM286.405 87.0583C287.556 90.2807 288.822 92.8701 290.203 94.8265C291.584 96.6679 293.713 98.6818 296.59 100.868L295.036 102.595H263.791L262.755 99.4874L265.345 98.7969C267.071 98.2215 268.279 97.531 268.97 96.7254C269.775 95.8047 270.178 94.5963 270.178 93.1002C270.178 92.1796 269.545 89.8203 268.279 86.0225L264.827 75.8375H238.069L236.688 80.1532C234.962 85.332 234.099 89.2449 234.099 91.8918C234.099 94.4237 234.559 96.7254 235.48 98.7969L236.688 100.868L235.135 102.595H216.146L214.937 99.4874L217.527 98.7969C220.289 97.9913 222.36 96.898 223.741 95.517C225.122 94.0209 226.446 91.4315 227.712 87.7488L245.32 36.9964C246.125 34.1193 246.528 32.1053 246.528 30.9544C246.528 28.4226 244.687 26.6388 241.004 25.603L239.105 25.0851L240.314 21.9778H263.791L286.405 87.0583ZM263.1 71.004L251.362 35.9606L239.796 71.004H263.1ZM374.061 25.7756C372.219 28.4226 370.896 31.1271 370.09 33.8891C369.4 36.6511 369.054 40.2188 369.054 44.592V92.755C369.054 95.1718 369.572 97.1857 370.608 98.7969L372.162 100.868L370.608 102.595H352.655L314.332 36.4785V79.9806C314.332 84.584 314.677 88.2667 315.367 91.0287C316.173 93.6757 317.496 96.2651 319.338 98.7969L320.891 100.868L319.338 102.595H300.349L299.14 99.4874C302.133 98.6818 304.204 97.9338 305.355 97.2433C306.621 96.5528 307.484 95.5746 307.944 94.3086C308.405 93.0427 308.635 91.0287 308.635 88.2667V42.6931C308.635 37.6294 308.175 33.9467 307.254 31.645C306.333 29.3433 304.319 26.8689 301.212 24.222L302.593 21.9778H325.034L363.53 88.6119V36.3059C363.53 32.8533 362.782 30.4366 361.286 29.0555C359.905 27.6745 356.97 26.3511 352.482 25.0851L353.518 21.9778H374.061L375.614 23.8767L374.061 25.7756ZM481.297 47.1814C481.297 52.13 480.089 56.5033 477.672 60.3011C475.37 63.9838 472.263 66.8034 468.35 68.7598C464.552 70.7162 460.524 71.6945 456.266 71.6945C451.778 71.6945 447.52 70.5436 443.492 68.2419L443.837 66.6883L446.772 66.8609L449.706 66.6883C454.195 65.9978 457.705 63.9838 460.237 60.6463C462.768 57.1938 464.034 52.6479 464.034 47.0088C464.034 40.6791 462.596 35.3852 459.719 31.1271C456.957 26.7539 453.101 24.5672 448.153 24.5672C445.506 24.5672 443.549 25.3153 442.283 26.8114C441.133 28.3075 440.557 29.9762 440.557 31.8176V79.9806C440.557 84.584 440.902 88.2091 441.593 90.8561C442.398 93.503 443.779 96.15 445.736 98.7969L447.117 100.868L445.736 102.595H415.699L414.49 99.4874C417.483 98.6818 419.554 97.9338 420.705 97.2433C421.971 96.5528 422.834 95.5746 423.294 94.3086C423.755 93.0427 423.985 91.0287 423.985 88.2667V42.3478C423.985 38.3199 423.64 35.2701 422.949 33.1986C422.374 31.012 420.935 29.2282 418.633 27.8472L416.562 26.6388L417.252 24.3946C420.59 23.3589 424.906 22.4382 430.199 21.6326C435.608 20.827 440.73 20.4242 445.563 20.4242C457.302 20.4242 466.163 22.8985 472.148 27.8472C478.247 32.6807 481.297 39.1255 481.297 47.1814ZM496.467 44.2467C496.467 40.1037 496.294 36.9964 495.949 34.9249C495.604 32.7383 494.913 30.8969 493.877 29.4008C492.842 27.9047 491.173 26.1784 488.871 24.222L490.425 21.9778H520.462L521.67 24.7399C519.023 26.236 517.124 27.5594 515.974 28.7103C514.823 29.8611 514.017 31.2997 513.557 33.026C513.212 34.7522 513.039 37.4567 513.039 41.1395V89.3024C513.039 92.9851 513.557 95.4019 514.593 96.5528C515.628 97.7036 517.93 98.279 521.498 98.279H528.057C531.395 98.279 534.042 97.1857 535.998 94.9991C537.955 92.6974 539.969 88.3818 542.04 82.0521L545.493 83.2605V103.976L543.767 105.529C542.27 104.379 540.602 103.573 538.76 103.113C536.919 102.767 534.157 102.595 530.474 102.595H488.008L486.972 99.4874C489.849 98.6818 491.921 97.9338 493.187 97.2433C494.453 96.4377 495.316 95.4019 495.776 94.136C496.237 92.8701 496.467 90.9136 496.467 88.2667V44.2467ZM618.51 87.0583C619.661 90.2807 620.927 92.8701 622.308 94.8265C623.689 96.6679 625.818 98.6818 628.695 100.868L627.141 102.595H595.896L594.86 99.4874L597.45 98.7969C599.176 98.2215 600.384 97.531 601.075 96.7254C601.88 95.8047 602.283 94.5963 602.283 93.1002C602.283 92.1796 601.65 89.8203 600.384 86.0225L596.932 75.8375H570.174L568.793 80.1532C567.067 85.332 566.204 89.2449 566.204 91.8918C566.204 94.4237 566.664 96.7254 567.585 98.7969L568.793 100.868L567.24 102.595H548.251L547.042 99.4874L549.632 98.7969C552.394 97.9913 554.465 96.898 555.846 95.517C557.227 94.0209 558.551 91.4315 559.817 87.7488L577.425 36.9964C578.23 34.1193 578.633 32.1053 578.633 30.9544C578.633 28.4226 576.792 26.6388 573.109 25.603L571.21 25.0851L572.419 21.9778H595.896L618.51 87.0583ZM595.205 71.004L583.467 35.9606L571.901 71.004H595.205ZM706.166 25.7756C704.324 28.4226 703.001 31.1271 702.195 33.8891C701.505 36.6511 701.159 40.2188 701.159 44.592V92.755C701.159 95.1718 701.677 97.1857 702.713 98.7969L704.267 100.868L702.713 102.595H684.76L646.437 36.4785V79.9806C646.437 84.584 646.782 88.2667 647.472 91.0287C648.278 93.6757 649.601 96.2651 651.443 98.7969L652.996 100.868L651.443 102.595H632.454L631.245 99.4874C634.238 98.6818 636.309 97.9338 637.46 97.2433C638.726 96.5528 639.589 95.5746 640.049 94.3086C640.51 93.0427 640.74 91.0287 640.74 88.2667V42.6931C640.74 37.6294 640.28 33.9467 639.359 31.645C638.438 29.3433 636.424 26.8689 633.317 24.222L634.698 21.9778H657.139L695.635 88.6119V36.3059C695.635 32.8533 694.887 30.4366 693.391 29.0555C692.01 27.6745 689.075 26.3511 684.587 25.0851L685.623 21.9778H706.166L707.719 23.8767L706.166 25.7756ZM756.095 88.2667C756.095 90.9136 756.325 92.9276 756.786 94.3086C757.361 95.5746 758.282 96.5528 759.548 97.2433C760.814 97.9338 762.885 98.6818 765.762 99.4874L764.554 102.595H734.517L733.136 100.868L734.517 98.7969C736.473 96.15 737.797 93.503 738.487 90.8561C739.293 88.094 739.638 84.4689 739.523 79.9806V33.5439C739.523 30.6667 739.235 28.7678 738.66 27.8472C738.2 26.8114 737.221 26.2935 735.725 26.2935H733.826C729.914 26.2935 726.979 27.5019 725.022 29.9187C723.066 32.2204 721.052 36.421 718.98 42.5205L715.528 41.3121V19.7337L717.254 18.18L719.326 19.7337C721.512 21.2298 725.77 21.9778 732.1 21.9778H763.691C770.021 21.9778 774.279 21.2298 776.465 19.7337L778.537 18.18L780.436 19.7337V41.3121L776.811 42.5205C774.624 36.1908 772.552 31.9327 770.596 29.7461C768.755 27.4444 765.935 26.2935 762.137 26.2935H759.893C758.397 26.2935 757.361 26.8114 756.786 27.8472C756.325 28.7678 756.095 30.6667 756.095 33.5439V88.2667ZM846.095 87.0583C847.246 90.2807 848.512 92.8701 849.893 94.8265C851.274 96.6679 853.403 98.6818 856.28 100.868L854.726 102.595H823.481L822.445 99.4874L825.034 98.7969C826.761 98.2215 827.969 97.531 828.659 96.7254C829.465 95.8047 829.868 94.5963 829.868 93.1002C829.868 92.1796 829.235 89.8203 827.969 86.0225L824.516 75.8375H797.759L796.378 80.1532C794.652 85.332 793.789 89.2449 793.789 91.8918C793.789 94.4237 794.249 96.7254 795.17 98.7969L796.378 100.868L794.824 102.595H775.835L774.627 99.4874L777.217 98.7969C779.979 97.9913 782.05 96.898 783.431 95.517C784.812 94.0209 786.136 91.4315 787.402 87.7488L805.009 36.9964C805.815 34.1193 806.218 32.1053 806.218 30.9544C806.218 28.4226 804.377 26.6388 800.694 25.603L798.795 25.0851L800.003 21.9778H823.481L846.095 87.0583ZM822.79 71.004L811.051 35.9606L799.485 71.004H822.79ZM891.803 88.2667C891.803 90.9136 892.033 92.9276 892.494 94.3086C893.069 95.5746 893.99 96.5528 895.256 97.2433C896.522 97.9338 898.593 98.6818 901.47 99.4874L900.262 102.595H870.225L868.844 100.868L870.225 98.7969C872.181 96.15 873.505 93.503 874.195 90.8561C875.001 88.094 875.346 84.4689 875.231 79.9806V33.5439C875.231 30.6667 874.943 28.7678 874.368 27.8472C873.907 26.8114 872.929 26.2935 871.433 26.2935H869.534C865.621 26.2935 862.687 27.5019 860.73 29.9187C858.774 32.2204 856.76 36.421 854.688 42.5205L851.236 41.3121V19.7337L852.962 18.18L855.034 19.7337C857.22 21.2298 861.478 21.9778 867.808 21.9778H899.399C905.728 21.9778 909.987 21.2298 912.173 19.7337L914.245 18.18L916.144 19.7337V41.3121L912.518 42.5205C910.332 36.1908 908.26 31.9327 906.304 29.7461C904.463 27.4444 901.643 26.2935 897.845 26.2935H895.601C894.105 26.2935 893.069 26.8114 892.494 27.8472C892.033 28.7678 891.803 30.6667 891.803 33.5439V88.2667ZM923.108 99.4874C925.755 98.7969 927.654 98.1064 928.805 97.4159C930.071 96.6103 930.876 95.5746 931.221 94.3086C931.682 92.9276 931.912 90.9136 931.912 88.2667V43.3836C931.912 37.8595 931.452 34.0042 930.531 31.8176C929.725 29.5159 927.654 26.984 924.316 24.222L925.87 21.9778H955.044L956.252 24.7399C952.915 26.6963 950.786 28.5377 949.865 30.2639C948.945 31.8751 948.484 34.8098 948.484 39.0679V81.5342C948.484 86.9432 948.887 90.7985 949.693 93.1002C950.613 95.2868 952.685 97.7612 955.907 100.523L954.526 102.595H924.316L923.108 99.4874ZM1004.58 104.148C992.611 104.148 983.117 100.408 976.096 92.9276C969.076 85.4471 965.566 75.2621 965.566 62.3726C965.566 49.4831 969.076 39.2981 976.096 31.8176C983.117 24.222 992.611 20.4242 1004.58 20.4242C1016.55 20.4242 1026.04 24.222 1033.06 31.8176C1040.2 39.2981 1043.77 49.4831 1043.77 62.3726C1043.77 75.147 1040.2 85.332 1033.06 92.9276C1026.04 100.408 1016.55 104.148 1004.58 104.148ZM1004.06 100.178C1008.32 100.178 1012.06 98.6243 1015.28 95.517C1018.62 92.2946 1021.21 87.8639 1023.05 82.2247C1024.89 76.5856 1025.81 70.0833 1025.81 62.7178C1025.81 55.3524 1024.89 48.735 1023.05 42.8657C1021.32 36.9964 1018.85 32.4506 1015.63 29.2282C1012.52 25.8907 1008.95 24.222 1004.93 24.222C1000.67 24.222 996.869 25.8907 993.532 29.2282C990.194 32.4506 987.605 37.0539 985.764 43.0383C983.922 48.9077 983.002 55.6401 983.002 63.2357C983.002 74.399 984.9 83.3756 988.698 90.1656C992.496 96.8405 997.617 100.178 1004.06 100.178ZM1124.75 25.7756C1122.91 28.4226 1121.59 31.1271 1120.78 33.8891C1120.09 36.6511 1119.75 40.2188 1119.75 44.592V92.755C1119.75 95.1718 1120.26 97.1857 1121.3 98.7969L1122.85 100.868L1121.3 102.595H1103.35L1065.02 36.4785V79.9806C1065.02 84.584 1065.37 88.2667 1066.06 91.0287C1066.87 93.6757 1068.19 96.2651 1070.03 98.7969L1071.58 100.868L1070.03 102.595H1051.04L1049.83 99.4874C1052.82 98.6818 1054.9 97.9338 1056.05 97.2433C1057.31 96.5528 1058.18 95.5746 1058.64 94.3086C1059.1 93.0427 1059.33 91.0287 1059.33 88.2667V42.6931C1059.33 37.6294 1058.87 33.9467 1057.95 31.645C1057.03 29.3433 1055.01 26.8689 1051.9 24.222L1053.29 21.9778H1075.73L1114.22 88.6119V36.3059C1114.22 32.8533 1113.47 30.4366 1111.98 29.0555C1110.6 27.6745 1107.66 26.3511 1103.17 25.0851L1104.21 21.9778H1124.75L1126.31 23.8767L1124.75 25.7756Z" fill="#800020"/>
</svg>
